<svg xmlns="http://www.w3.org/2000/svg" viewBox="0 0 999 307"><defs><style>.cls-1{fill:#171c20;}.cls-2{fill:#5cb8b3;}</style></defs><g id="Soito"><path class="cls-1" d="M79,222.46H68.39a7.39,7.39,0,0,1-7-9.83L104.15,91.27a7.38,7.38,0,0,1,7-4.92h20a7.38,7.38,0,0,1,7,4.92l42.78,121.35a7.39,7.39,0,0,1-7,9.84H163.29a7.38,7.38,0,0,1-7-5L121.63,114.26h-1.06L86,217.42A7.38,7.38,0,0,1,79,222.46Zm13.55-53.37h57a7.37,7.37,0,0,1,7.38,7.38v5a7.37,7.37,0,0,1-7.38,7.38h-57a7.37,7.37,0,0,1-7.37-7.38v-5A7.37,7.37,0,0,1,92.52,169.09Z"/><path class="cls-1" d="M236.9,224.45q-15.28,0-26.21-6.72a44.43,44.43,0,0,1-16.82-18.57Q188,187.3,188,171.81t6-27.48a44.86,44.86,0,0,1,16.92-18.61Q221.81,119,236.77,119a50.76,50.76,0,0,1,22,4.56,38,38,0,0,1,15.32,12.82A36,36,0,0,1,278.8,146a7.42,7.42,0,0,1-7,9.75h-9a7.12,7.12,0,0,1-6.53-4.65A21.82,21.82,0,0,0,251,143.4q-5.22-5-13.93-5a21.81,21.81,0,0,0-12.95,4,25.45,25.45,0,0,0-8.68,11.33,45.6,45.6,0,0,0-3.09,17.67,47.27,47.27,0,0,0,3.06,17.92,25.84,25.84,0,0,0,8.61,11.49,23.29,23.29,0,0,0,22.59,2,18.94,18.94,0,0,0,7.08-5.88,20.49,20.49,0,0,0,2.63-4.82,7.26,7.26,0,0,1,6.8-4.55h8.6a7.43,7.43,0,0,1,7,9.72,37.94,37.94,0,0,1-4.51,9.46,37.42,37.42,0,0,1-15,13Q249.74,224.46,236.9,224.45Z"/><path class="cls-1" d="M324.2,224.52A42.07,42.07,0,0,1,306.76,221a28.07,28.07,0,0,1-12.23-10.34Q290,203.85,290,193.81q0-8.64,3.19-14.29a24.65,24.65,0,0,1,8.71-9,44.34,44.34,0,0,1,12.46-5.16,104.86,104.86,0,0,1,14.39-2.56q9-.92,14.55-1.69c3.72-.51,6.44-1.31,8.14-2.39A5.59,5.59,0,0,0,354,153.6v-.4q0-7.5-4.45-11.63t-12.83-4.12q-8.83,0-14,3.86a21,21,0,0,0-5,5.22,7.29,7.29,0,0,1-7.11,3.15l-7.75-1.11a7.33,7.33,0,0,1-5.39-10.92,33.26,33.26,0,0,1,4.65-6,38.66,38.66,0,0,1,14.95-9.44A57.83,57.83,0,0,1,336.63,119a63.81,63.81,0,0,1,14.69,1.73,41.81,41.81,0,0,1,13.35,5.68,29.24,29.24,0,0,1,9.74,10.74q3.69,6.78,3.69,16.95v60.94a7.38,7.38,0,0,1-7.38,7.38h-8.37a7.38,7.38,0,0,1-7.38-7.38v-6.65h-.8a29.19,29.19,0,0,1-6.14,7.94,29.56,29.56,0,0,1-9.91,5.92A39.69,39.69,0,0,1,324.2,224.52Zm6.25-17.68A25.89,25.89,0,0,0,343,204a21.23,21.23,0,0,0,8.21-7.68,19.87,19.87,0,0,0,2.89-10.43v-12a11.38,11.38,0,0,1-3.82,1.72,54.93,54.93,0,0,1-6,1.4c-2.22.4-4.41.75-6.58,1.07l-5.65.79a42.4,42.4,0,0,0-9.63,2.39,16.19,16.19,0,0,0-6.72,4.62,11.52,11.52,0,0,0-2.45,7.61q0,6.65,4.85,10T330.45,206.84Z"/><path class="cls-1" d="M434.62,224.25a38.63,38.63,0,0,1-21.53-6.18q-9.51-6.18-15-17.94t-5.52-28.58q0-17,5.62-28.74t15.19-17.75a39.27,39.27,0,0,1,21.33-6q9,0,14.75,3a28.38,28.38,0,0,1,9.18,7.24,45,45,0,0,1,5.24,7.95h1V93.72a7.38,7.38,0,0,1,7.38-7.37h9.37A7.38,7.38,0,0,1,489,93.72V215.08a7.39,7.39,0,0,1-7.38,7.38h-8.9a7.38,7.38,0,0,1-7.38-7.38v-8.71h-1.47a40,40,0,0,1-5.38,7.88,29.24,29.24,0,0,1-9.3,7.07Q443.39,224.25,434.62,224.25Zm6.72-19.74a20.67,20.67,0,0,0,13-4.15,25.63,25.63,0,0,0,8.18-11.6,49.33,49.33,0,0,0,2.79-17.35,48.69,48.69,0,0,0-2.76-17.21,24.79,24.79,0,0,0-8.11-11.36,23.42,23.42,0,0,0-26.55.13,25.34,25.34,0,0,0-8.11,11.56,53.89,53.89,0,0,0,0,33.93A26.08,26.08,0,0,0,428,200.23,20.84,20.84,0,0,0,441.34,204.51Z"/><path class="cls-1" d="M554.28,224.45q-15.35,0-26.48-6.41a42.9,42.9,0,0,1-17.11-18.21q-6-11.81-6-27.82,0-15.75,6-27.68a45.24,45.24,0,0,1,16.85-18.61Q538.4,119,553,119a52.29,52.29,0,0,1,17.85,3,40.79,40.79,0,0,1,14.88,9.34A43.81,43.81,0,0,1,596,147.46q3.72,9.73,3.73,23.16h0A7.39,7.39,0,0,1,592.3,178H523.38a7.39,7.39,0,0,1-7.38-7.38v-1.47a7.38,7.38,0,0,1,7.38-7.37H567.8a7.36,7.36,0,0,0,6.91-10,22.11,22.11,0,0,0-1.09-2.31,21.85,21.85,0,0,0-8.14-8.54,23.18,23.18,0,0,0-12.13-3.13,23.62,23.62,0,0,0-13,3.56,24.8,24.8,0,0,0-8.67,9.3,26.87,26.87,0,0,0-3.16,12.6V177.4a33.08,33.08,0,0,0,3.26,15.25,23,23,0,0,0,9.11,9.7,27,27,0,0,0,13.69,3.36,28.43,28.43,0,0,0,9.5-1.5,20.63,20.63,0,0,0,7.38-4.42,18,18,0,0,0,2.79-3.35,7.33,7.33,0,0,1,7-3.32l7.82.88a7.39,7.39,0,0,1,5.6,11,34.34,34.34,0,0,1-4.1,5.56,39.31,39.31,0,0,1-15.18,10.24A57.72,57.72,0,0,1,554.28,224.45Z"/><path class="cls-1" d="M614.4,215.08V127.75a7.37,7.37,0,0,1,7.38-7.37H630a7.37,7.37,0,0,1,7.38,7.37v10h1.2A27.23,27.23,0,0,1,649.15,124a30.88,30.88,0,0,1,17.62-5q10.37,0,17.51,5a26.69,26.69,0,0,1,10.07,13.66h1.06a28,28,0,0,1,11.47-13.59Q715,119,726.05,119q14.09,0,23,8.91t8.9,26v61.14a7.38,7.38,0,0,1-7.38,7.38H741.2a7.39,7.39,0,0,1-7.38-7.38V157.66q0-9.51-5.05-13.93a18.11,18.11,0,0,0-12.36-4.42q-8.7,0-13.59,5.42t-4.88,14.06v56.29a7.39,7.39,0,0,1-7.38,7.38h-8.84a7.39,7.39,0,0,1-7.38-7.38V156.66q0-7.91-4.75-12.63t-12.39-4.72a17.63,17.63,0,0,0-9.44,2.63,18.78,18.78,0,0,0-6.78,7.38,23.26,23.26,0,0,0-2.53,11.06v54.7a7.38,7.38,0,0,1-7.37,7.38h-9.3A7.38,7.38,0,0,1,614.4,215.08Z"/><path class="cls-1" d="M796.84,124.28h-8.91c-6,0-10.87,5-10.87,8.65v63.23c3,4.94,7.21,7.57,12.71,7.57a14.78,14.78,0,0,0,9.77-3.36,9.16,9.16,0,0,0,2.29-3.15l5.87-12.75V132.93C807.7,129.3,802.84,124.28,796.84,124.28Z"/><path class="cls-1" d="M778.86,114.21a20.07,20.07,0,0,0,27.35,0,17.49,17.49,0,0,0,0-25.82,20.07,20.07,0,0,0-27.35,0,17.49,17.49,0,0,0,0,25.82Z"/><path class="cls-1" d="M908.63,218.18,867.4,105.88c-1.83-5,1.27-10.67,6.92-12.75l8.39-3.08c5.65-2.07,11.71.27,13.53,5.24l41.24,112.3c1.82,5-1.28,10.68-6.93,12.75l-8.39,3.08C916.51,225.5,910.46,223.15,908.63,218.18Z"/><path class="cls-2" d="M893.75,91.42c-4.43-5.22-14-8.94-22.33-8.94-12.33,0-19,5.59-24.29,17.14,0,0-39.46,85.35-45.12,97.71a8.81,8.81,0,0,1-2.34,3.1,14.9,14.9,0,0,1-9.75,3.3c-5.55,0-9.78-2.65-12.82-7.63,0,0,0,0,0,0,1.87,9.28,5.11,13.77,9.57,19.44,4.44,5.21,11.81,8.63,20.17,8.63,12.06,0,18.84-6.6,24.16-16.49h0l45.43-98.18a11,11,0,0,1,4.27-4.8,14.43,14.43,0,0,1,7.5-2.13c5.33,0,9.93,1.53,13,6a.14.14,0,0,0,.26-.11C899.62,99.78,898.1,96.94,893.75,91.42Z"/></g></svg>