<svg xmlns="http://www.w3.org/2000/svg" viewBox="0 0 150 150"><defs><style>.cls-1{fill:#171c20;}.cls-2{fill:#5cb8b3;}</style></defs><g id="Logo_de_marca" data-name="Logo de marca"><path class="cls-1" d="M27.7,51.6H20.52c-4.83,0-8.75,4-8.75,7v50.92c2.43,4,5.81,6.09,10.23,6.09a11.92,11.92,0,0,0,7.87-2.7,7.4,7.4,0,0,0,1.85-2.54c.84-1.85,2.53-5.5,4.72-10.26V58.57C36.44,55.65,32.53,51.6,27.7,51.6Z"/><path class="cls-1" d="M13.22,43.5a15.43,15.43,0,0,0,11,4.33,15.43,15.43,0,0,0,11-4.33,14.09,14.09,0,0,0,0-20.79,15.43,15.43,0,0,0-11-4.33,15.43,15.43,0,0,0-11,4.33,14.09,14.09,0,0,0,0,20.79Z"/><path class="cls-1" d="M117.71,127.22,84.51,36.79c-1.47-4,1-8.59,5.58-10.26l6.75-2.48c4.55-1.67,9.43.21,10.9,4.21l33.2,90.43c1.47,4-1,8.6-5.57,10.27l-6.76,2.48C124.06,133.11,119.18,131.22,117.71,127.22Z"/><path class="cls-2" d="M105.73,25.15c-3.57-4.2-11.25-7.2-18-7.2-9.93,0-15.28,4.5-19.56,13.8,0,0-31.77,68.73-36.33,78.68A7,7,0,0,1,30,112.92a12,12,0,0,1-7.85,2.66c-4.46,0-7.87-2.13-10.32-6.14,0,0,0,0,0,0,1.5,7.47,4.11,11.09,7.7,15.65,3.58,4.2,9.52,7,16.24,7,9.71,0,15.17-5.31,19.46-13.28h0l36.58-79a8.84,8.84,0,0,1,3.44-3.87,11.57,11.57,0,0,1,6-1.71c4.29,0,8,1.23,10.45,4.87a.12.12,0,0,0,.21-.09C110.46,31.88,109.24,29.59,105.73,25.15Z"/></g></svg>